# xmcd
#
# Track frame offsets:
#	180
#	21810
#	37240
#	52425
#	75535
#	99160
#	114375
#	129365
#	145845
#	160430
#	186355
#	204800
#
# Disc length: 2919 seconds
#
# Revision: 1
# Processed by: cddbd v1.5.2PL0 Copyright (c) Steve Scherf et al.
# Submitted via: EasyCDDAExtractor 16.0.9.1
#
DISCID=a20b650c
DTITLE=Sax Orchestra - Sax Appeal No 1
DYEAR=1900
DGENRE=Blues
TTITLE0=Love Me For A Reason
TTITLE1=Love Can Build A Bridge
TTITLE2=I'll Stand By You
TTITLE3=You Don`t Love Me
TTITLE4=Run Baby Run
TTITLE5=Aladino
TTITLE6=Zombie
TTITLE7=I Swear
TTITLE8=I Can See Clearly Now
TTITLE9=Circle Of Life
TTITLE10=Be My Lover
TTITLE11=Believe
EXTD=
EXTT0=
EXTT1=
EXTT2=
EXTT3=
EXTT4=
EXTT5=
EXTT6=
EXTT7=
EXTT8=
EXTT9=
EXTT10=
EXTT11=
PLAYORDER=
